<svg width="109" height="122" viewBox="0 0 109 122" fill="none" xmlns="http://www.w3.org/2000/svg">
<path fill-rule="evenodd" clip-rule="evenodd" d="M37.0084 3.75194C41.0578 8.75453 41.0578 16.8653 37.0084 21.8679L35.4023 23.8521H69.67C80.101 23.8521 90.1047 28.9712 97.4805 38.0832C104.856 47.1953 109 59.5538 109 72.4402C109 85.3265 104.856 97.6851 97.4805 106.797C90.1047 115.909 80.101 121.028 69.67 121.028H48.9836C43.2569 121.028 38.6145 115.293 38.6145 108.218C38.6145 101.144 43.2569 95.4084 48.9836 95.4084H69.67C74.6009 95.4084 79.3298 92.9885 82.8164 88.6812C86.303 84.3738 88.2618 78.5317 88.2618 72.4402C88.2618 66.3486 86.303 60.5066 82.8164 56.1992C79.3298 51.8918 74.6009 49.472 69.67 49.472H35.4023L37.0084 51.4561C41.0578 56.4587 41.0578 64.5695 37.0084 69.5721C32.959 74.5747 26.3937 74.5747 22.3443 69.5721L3.03704 45.72C-1.01235 40.7174 -1.01235 32.6066 3.03704 27.604L22.3443 3.75194C26.3937 -1.25065 32.959 -1.25065 37.0084 3.75194Z" fill="white"/>
</svg>
